# xmcd
#
# Track frame offsets:
#	150
#	16303
#	34339
#	53139
#	71443
#	89804
#	107336
#	121344
#	135179
#	153854
#	171919
#	189406
#	211684
#	231052
#	250826
#	271654
#	291326
#
# Disc length: 4075
#
# Revision: 1
# Processed by: cddbd v1.5.1PL0 Copyright (c) Steve Scherf et al.
# Submitted via: AltoMP3_Maker 3.0
# Normalized: r0:TRMNUM
#
DISCID=e00fe911
DTITLE=Diversos - Sucessos Internacionais
DYEAR=1900
DGENRE=
TTITLE0=Bee Gees - Saturday Night Fever
TTITLE1=Bee Gees - How Deep Is Your Love
TTITLE2=Berlin-Takemy Breath Away
TTITLE3=Bryan Adams-Heaven
TTITLE4=Chris De Burgs-Lady in Red
TTITLE5=Crowd House - Dont Dreamit's Over
TTITLE6=INXS - By My Side
TTITLE7=INXS - Never Tear Us Apart
TTITLE8=Jim Diamound-Should Have
TTITLE9=Lionel Ritchie- Say You Say Me
TTITLE10=Nazareth- love Hurts
TTITLE11=Paul Yoing-Every Time Go Away
TTITLE12=Peter Catera-Glory of Love
TTITLE13=Roxette - It Must Have Been Love
TTITLE14=Roxette-Spending My Time
TTITLE15=Stevie Wonder-I Just Called To Say Love You
TTITLE16=Tracy Chapman-Baby Cani Hold You
EXTD=
EXTT0=
EXTT1=
EXTT2=
EXTT3=
EXTT4=
EXTT5=
EXTT6=
EXTT7=
EXTT8=
EXTT9=
EXTT10=
EXTT11=
EXTT12=
EXTT13=
EXTT14=
EXTT15=
EXTT16=
PLAYORDER=
